<?xml version="1.0" standalone="no"?><!-- Generator: Gravit.io --><svg xmlns="http://www.w3.org/2000/svg" xmlns:xlink="http://www.w3.org/1999/xlink" style="isolation:isolate" viewBox="72.3 150.394 79.4 97.206" width="79.4" height="97.206"><g><g><path d=" M 86.3 193.9 C 86.9 195.9 87.9 199.7 90.3 201.9 C 92.1 208.5 97.3 216.2 105.7 219.2 C 107.7 219.9 109.8 220.3 112 220.3 C 114.1 220.3 116.2 219.9 118.2 219.2 C 126.6 216.2 131.8 208.6 133.6 201.9 C 136 199.7 137 195.9 137.6 193.9 C 138.5 190.7 139.4 186.2 137 183 C 136.9 182.9 136.8 182.8 136.7 182.6 C 136.9 181.5 137 180.4 137.1 179.4 C 139.9 160.6 129.5 159.4 128.3 159.4 C 128.2 159.4 128.2 159.3 128.1 159.3 C 126.9 154.4 119.9 149.3 113.3 150.6 C 106.8 152 93.1 150.4 93.1 150.4 C 92.9 153.3 95.4 155.3 95.4 155.3 C 83.9 162.3 86 177.3 87.1 182.6 C 87 182.7 86.9 182.8 86.8 183 C 84.5 186.2 85.4 190.7 86.3 193.9 Z  M 92.3 185.1 C 92.4 185.1 92.5 185.1 92.6 185.1 C 92.6 185.1 92.6 185 92.6 185 C 92.3 184 90.9 178.3 95.8 174.9 C 99.8 175.8 105.8 176 114 172.5 C 129.7 165.8 131.1 185.2 131.1 185.2 L 131.1 185.2 C 131.2 185.2 131.3 185.2 131.4 185.2 C 133 185.2 134.7 186.5 132.9 192.7 C 131.5 197.6 130.2 199 129.3 199 C 128.4 204.8 123.9 212.2 116.5 214.8 C 115 215.3 113.4 215.6 111.8 215.6 C 110.2 215.6 108.6 215.3 107.1 214.8 C 99.8 212.2 95.2 204.8 94.3 199 C 93.3 198.9 92 197.6 90.7 192.7 C 89 186.3 90.7 185.1 92.3 185.1 Z " fill="rgb(0,0,0)"/><path d=" M 132.1 215.1 C 129.1 218.8 125 222 119.8 223.8 C 117.3 224.7 114.7 225.1 112 225.1 C 109.3 225.1 106.6 224.6 104.1 223.7 C 98.9 221.8 94.9 218.6 91.9 215 L 91.9 215 C 87.6 217.3 80.1 221.5 72.3 227.2 C 81.2 239.6 95.7 247.6 112 247.6 C 128.3 247.6 142.8 239.6 151.7 227.3 C 143.9 221.6 136.5 217.4 132.1 215.1 Z " fill="rgb(0,0,0)"/></g></g></svg>